{
  "title": "Altergeist.2015.WEBRiP.XviD-VAiN",
  "uid": 11813635,
  "size": 1047797733,
  "categoryP": "video",
  "categoryS": "movies",
  "magnet": "?xt=urn:btih:5c174933e4f1d69ae05156faff8aece9faf019cf&amp;dn=Altergeist.2015.WEBRiP.XviD-VAiN&amp;tr=udp%3A%2F%2Ftracker.openbittorrent.com%3A80&amp;tr=udp%3A%2F%2Fopen.demonii.com%3A1337&amp;tr=udp%3A%2F%2Ftracker.coppersurfer.tk%3A6969&amp;tr=udp%3A%2F%2Fexodus.desync.com%3A6969",
  "seeders": 37,
  "leechers": 10,
  "uploader": "xxxlavalxxx",
  "files": 5,
  "time": 1428994018,
  "description": " &lt;a href=&quot;http://extraimago.com/image/wI3&quot; rel=&quot;nofollow&quot; target=&quot;_NEW&quot;&gt;http://extraimago.com/image/wI3&lt;/a&gt;\n &lt;a href=&quot;\nhttp://www.imdb.com/title/tt1985196/&quot; rel=&quot;nofollow&quot; target=&quot;_NEW&quot;&gt;\nhttp://www.imdb.com/title/tt1985196/&lt;/a&gt;\n\n\nKing's Ransom Winery is one of the most haunted places in America, with a long history of bizarre suicides. Six ghost hunters have been given the rare opportunity to conduct a paranormal investigation. What they discover terrifies them.\n\nDirector: Tedi Sarafian\nWriter: Tedi Sarafian\nStars: Kristina Anapau, Mark Hapka, David Weidoff\nGenres: Horror | Sci-Fi | Thriller\nCountry: USA\nLanguage: English\n\n\nT E C H N i C A L . i N F O . . .\n\nBasic Information\nFormat                                   : AVI\nFormat/Info                              : Audio Video Interleave\nFile size                                : 974 MiB\nDuration                                 : 1h 30mn\nOverall bit rate                         : 1 497 Kbps\nWriting library                          : VirtualDub build 35491/release\n\nVideo\nID                                       : 0\nFormat                                   : MPEG-4 Visual\nFormat profile                           : Advanced Simple@L5\nFormat settings, BVOP                    : 2\nFormat settings, QPel                    : No\nFormat settings, GMC                     : No warppoints\nFormat settings, Matrix                  : Default (MPEG)\nMuxing mode                              : Packed bitstream\nCodec ID                                 : XVID\nCodec ID/Hint                            : XviD\nDuration                                 : 1h 30mn\nBit rate                                 : 1 388 Kbps\nWidth                                    : 640 pixels\nHeight                                   : 286 pixels\nDisplay aspect ratio                     : 2.25:1\nFrame rate                               : 29.970 fps\nColor space                              : YUV\nChroma subsampling                       : 4:2:0\nBit depth                                : 8 bits\nScan type                                : Progressive\nCompression mode                         : Lossy\nBits/(Pixel*Frame)                       : 0.253\nStream size                              : 903 MiB (93%)\nWriting library                          : XviD 66\n\nAudio\nID                                       : 1\nFormat                                   : MPEG Audio\nFormat version                           : Version 1\nFormat profile                           : Layer 3\nMode                                     : Joint stereo\nMode extension                           : MS Stereo\nCodec ID                                 : 55\nCodec ID/Hint                            : MP3\nDuration                                 : 1h 30mn\nBit rate mode                            : Constant\nBit rate                                 : 96.0 Kbps\nChannel(s)                               : 2 channels\nSampling rate                            : 44.1 KHz\nCompression mode                         : Lossy\nStream size                              : 62.5 MiB (6%)\nAlignment                                : Aligned on interleaves\nInterleave, duration                     : 26 ms (0.78 video frame)\nInterleave, preload duration             : 522 ms\nWriting library                          : LAME3.98.2\n\n\nE N C O D E R S . N O T E S . . .       \n\nSOURCE......: :) ViDEO | Altergeist Web Rip Dingo Fcker AUDio | Altergeist Web Rip Dingo Fcker [Cheers M8]\n............:\nSAMPLE......: Yippers \nADDED NOTE..: Done made pretty.... horror so got some dark spots... \n\n &lt;a href=&quot;\nhttp://extraimago.com/image/wI9&quot; rel=&quot;nofollow&quot; target=&quot;_NEW&quot;&gt;\nhttp://extraimago.com/image/wI9&lt;/a&gt; &lt;a href=&quot;\nhttp://extraimago.com/image/wIM&quot; rel=&quot;nofollow&quot; target=&quot;_NEW&quot;&gt;\nhttp://extraimago.com/image/wIM&lt;/a&gt; &lt;a href=&quot;\nhttp://extraimago.com/image/wIU&quot; rel=&quot;nofollow&quot; target=&quot;_NEW&quot;&gt;\nhttp://extraimago.com/image/wIU&lt;/a&gt; &lt;a href=&quot;\nhttp://extraimago.com/image/wIz&quot; rel=&quot;nofollow&quot; target=&quot;_NEW&quot;&gt;\nhttp://extraimago.com/image/wIz&lt;/a&gt; &lt;a href=&quot;\nhttp://extraimago.com/image/wI0&quot; rel=&quot;nofollow&quot; target=&quot;_NEW&quot;&gt;\nhttp://extraimago.com/image/wI0&lt;/a&gt;",
  "parsed": {
    "xt": "urn:btih:5c174933e4f1d69ae05156faff8aece9faf019cf",
    "dn": "Altergeist.2015.WEBRiP.XviD-VAiN",
    "tr": [
      "udp://exodus.desync.com:6969",
      "udp://open.demonii.com:1337",
      "udp://tracker.coppersurfer.tk:6969",
      "udp://tracker.openbittorrent.com:80"
    ],
    "infoHash": "5c174933e4f1d69ae05156faff8aece9faf019cf",
    "infoHashBuffer": {
      "type": "Buffer",
      "data": [
        92,
        23,
        73,
        51,
        228,
        241,
        214,
        154,
        224,
        81,
        86,
        250,
        255,
        138,
        236,
        233,
        250,
        240,
        25,
        207
      ]
    },
    "name": "Altergeist.2015.WEBRiP.XviD-VAiN",
    "announce": [
      "udp://exodus.desync.com:6969",
      "udp://open.demonii.com:1337",
      "udp://tracker.coppersurfer.tk:6969",
      "udp://tracker.openbittorrent.com:80"
    ],
    "urlList": []
  },
  "previous": 5,
  "peers": 4,
  "last_updated": "2016-12-27T01:21:26.981Z"
}